{"title":"Sky Force 2012 DVDRip XviD-Ltu","uid":8665425,"size":735655533,"categoryP":"video","categoryS":"movies","magnet":"?xt=urn:btih:779b2b6aee8cdcaedcf94d47e96d706f4f77ee5a&amp;dn=Sky+Force+2012+DVDRip+XviD-Ltu&amp;tr=udp%3A%2F%2Ftracker.openbittorrent.com%3A80&amp;tr=udp%3A%2F%2Fopen.demonii.com%3A1337&amp;tr=udp%3A%2F%2Ftracker.coppersurfer.tk%3A6969&amp;tr=udp%3A%2F%2Fexodus.desync.com%3A6969","seeders":1,"leechers":0,"uploader":"ValidusVyto","files":-1,"time":1373398518,"description":"_______ Visit us at our Semi Public Bittorrent Community ________\n   &lt;a href=&quot;\nhttp://p2pdl.com&quot; rel=&quot;nofollow&quot; target=&quot;_NEW&quot;&gt;\nhttp://p2pdl.com&lt;/a&gt;  _____________________________ &lt;a href=&quot; http://p2pdl.com&quot; rel=&quot;nofollow&quot; target=&quot;_NEW&quot;&gt; http://p2pdl.com&lt;/a&gt;\n\n\nTitle: Sky Force 3D\nYear: 2012\nRated: All\nReleased: 14 Sep 2012\nRuntime: 1 h 31 min\nGenre: Animation\n\nTiTLE: Sky Force\nRELEASE.DATE: 2013.07.09\nDVD/AiR.DATE: 2012\nRUNTiME: 78mn / 1h 18mn\nGENRE: Animation\nViDEO: 1130Kbps 640x352 16:9 25fps\nAUDiO: 128Kbps 2Ch MP3 ABR\nLANGUAGE: English\nSUBTiTLES: SOURCE: PAL R2 DVD5 16:9 Retail\nSiZE: 0.70GB 50x15MB\nURL: \nwww.imdb.com/title/tt2104985/\n\nGeneral\nFormat                                   : AVI\nFormat/Info                              : Audio Video Interleave\nFile size                                : 702 MiB\nDuration                                 : 1h 17mn\nOverall bit rate mode                    : Variable\nOverall bit rate                         : 1 263 Kbps\n\nVideo\nID                                       : 0\nFormat                                   : MPEG-4 Visual\nFormat profile                           : Advanced Simple@L5\nFormat settings, BVOP                    : 2\nFormat settings, QPel                    : No\nFormat settings, GMC                     : No warppoints\nFormat settings, Matrix                  : Default (H.263)\nCodec ID                                 : XVID\nCodec ID/Hint                            : XviD\nDuration                                 : 1h 17mn\nBit rate                                 : 1 130 Kbps\nWidth                                    : 640 pixels\nHeight                                   : 352 pixels\nDisplay aspect ratio                     : 16:9\nFrame rate                               : 25.000 fps\nBit depth                                : 8 bits\nScan type                                : Progressive\nBits/(Pixel*Frame)                       : 0.201\nStream size                              : 627 MiB (89%)\nWriting library                          : XviD 1.2.1 (UTC 2008-12-04)\n\nAudio\nFormat                                   : MPEG Audio\nFormat version                           : Version 1\nFormat profile                           : Layer 3\nMode                                     : Joint stereo\nMode extension                           : MS Stereo\nCodec ID                                 : 55\nCodec ID/Hint                            : MP3\nDuration                                 : 1h 17mn\nBit rate mode                            : Variable\nBit rate                                 : 121 Kbps\nNominal bit rate                         : 128 Kbps\nChannel(s)                               : 2 channels\nSampling rate                            : 48.0 KHz\nStream size                              : 66.9 MiB (10%)\nAlignment                                : Aligned on interleaves\nInterleave, duration                     : 24 ms (0.60 video frame)\nInterleave, preload duration             : 187 ms\nTitle                                    : English\nWriting library                          : LAME3.99r\n\n &lt;a href=&quot;\nhttp://ultraimg.com/images/EjbQI.png&quot; rel=&quot;nofollow&quot; target=&quot;_NEW&quot;&gt;\nhttp://ultraimg.com/images/EjbQI.png&lt;/a&gt; &lt;a href=&quot;\nhttp://ultraimg.com/images/2EONA.png&quot; rel=&quot;nofollow&quot; target=&quot;_NEW&quot;&gt;\nhttp://ultraimg.com/images/2EONA.png&lt;/a&gt; &lt;a href=&quot;\nhttp://ultraimg.com/images/f1DeI.png&quot; rel=&quot;nofollow&quot; target=&quot;_NEW&quot;&gt;\nhttp://ultraimg.com/images/f1DeI.png&lt;/a&gt; &lt;a href=&quot;\nhttp://ultraimg.com/images/D24bT.png&quot; rel=&quot;nofollow&quot; target=&quot;_NEW&quot;&gt;\nhttp://ultraimg.com/images/D24bT.png&lt;/a&gt; &lt;a href=&quot;\nhttp://ultraimg.com/images/07HFZ.png&quot; rel=&quot;nofollow&quot; target=&quot;_NEW&quot;&gt;\nhttp://ultraimg.com/images/07HFZ.png&lt;/a&gt;\n\n\nEncoder Notes:Looking For Early Access To Anything You Can Provide DVDScr, R5, DVDR, BluRay, Direct\nAudio, Music Releases and Seedboxes. We require dedicated servers, so as to do more \nand fast releases of movies.\nIf You Got anything to offer please contact us at &quot;&lt;a class=&quot;__cf_email__&quot; href=&quot;/cdn-cgi/l/email-protection&quot; data-cfemail=&quot;05757762456d70766d2b666a68&quot;&gt;[email&amp;#160;protected]&lt;/a&gt;&lt;script cf-hash='f9e31' type=&quot;text/javascript&quot;&gt;\n/* &lt;![CDATA[ */!function(){try{var t=&quot;currentScript&quot;in document?document.currentScript:function(){for(var t=document.getElementsByTagName(&quot;script&quot;),e=t.length;e--;)if(t[e].getAttribute(&quot;cf-hash&quot;))return t[e]}();if(t&amp;&amp;t.previousSibling){var e,r,n,i,c=t.previousSibling,a=c.getAttribute(&quot;data-cfemail&quot;);if(a){for(e=&quot;&quot;,r=parseInt(a.substr(0,2),16),n=2;a.length-n;n+=2)i=parseInt(a.substr(n,2),16)^r,e+=String.fromCharCode(i);e=document.createTextNode(e),c.parentNode.replaceChild(e,c)}}}catch(u){}}();/* ]]&gt; */&lt;/script&gt;&quot;.\n\nFace book Fan Page:    &lt;a href=&quot;\nhttp://fbl.me/BC&quot; rel=&quot;nofollow&quot; target=&quot;_NEW&quot;&gt;\nhttp://fbl.me/BC&lt;/a&gt;","torrent":{"xt":"urn:btih:779b2b6aee8cdcaedcf94d47e96d706f4f77ee5a","amp;dn":"Sky+Force+2012+DVDRip+XviD-Ltu","amp;tr":["udp%3A%2F%2Ftracker.openbittorrent.com%3A80","udp%3A%2F%2Fopen.demonii.com%3A1337","udp%3A%2F%2Ftracker.coppersurfer.tk%3A6969","udp%3A%2F%2Fexodus.desync.com%3A6969"],"infoHash":"779b2b6aee8cdcaedcf94d47e96d706f4f77ee5a","infoHashBuffer":{"type":"Buffer","data":[119,155,43,106,238,140,220,174,220,249,77,71,233,109,112,111,79,119,238,90]},"announce":[],"urlList":[]}}